<?xml version="1.0" encoding="UTF-8" standalone="no"?><!DOCTYPE svg PUBLIC "-//W3C//DTD SVG 1.1//EN" "http://www.w3.org/Graphics/SVG/1.1/DTD/svg11.dtd"><svg width="100%" height="100%" viewBox="0 0 378 272" version="1.1" xmlns="http://www.w3.org/2000/svg" xmlns:xlink="http://www.w3.org/1999/xlink" xml:space="preserve" xmlns:serif="http://www.serif.com/" style="fill-rule:evenodd;clip-rule:evenodd;stroke-linejoin:round;stroke-miterlimit:2;"><path d="M377.467,97.232c0.055,-1.102 -0.341,-2.177 -1.093,-2.981l-79.504,-85.006c-0.98,-1.046 -2.43,-1.511 -3.839,-1.2l-40.353,8.703l-40.423,-16.449c-0.488,-0.198 -1.01,-0.299 -1.537,-0.299l-43.966,-0c-0.527,-0 -1.048,0.101 -1.536,0.299l-40.424,16.449l-40.352,-8.703c-1.408,-0.311 -2.857,0.154 -3.838,1.2l-79.504,85.006c-0.752,0.804 -1.148,1.879 -1.093,2.981c0.053,1.102 0.549,2.134 1.376,2.864l50.548,44.532l15.553,46.657c0.414,1.242 1.4,2.211 2.651,2.6c0.398,0.125 0.809,0.187 1.216,0.187c0.87,-0 1.732,-0.279 2.446,-0.816l29.355,-22.015c0.957,-0.719 1.55,-1.821 1.623,-3.013l0.292,-4.774l25.012,50.369c0.275,0.555 0.674,1.04 1.165,1.417l15.901,12.231c0.058,0.045 0.128,0.06 0.188,0.101c0.027,0.018 0.051,0.041 0.077,0.058c0.057,0.038 0.096,0.091 0.155,0.125c0.008,0.005 0.018,0.006 0.027,0.012c0.164,0.094 0.343,0.15 0.518,0.22c0.109,0.045 0.213,0.099 0.326,0.135c0.05,0.015 0.096,0.045 0.147,0.058c0.213,0.057 0.436,0.066 0.657,0.087l0,10.652c0,0.776 0.221,1.535 0.637,2.191l14.661,23.034c0.551,0.863 1.406,1.489 2.397,1.752l20.432,5.41c0.036,0.012 0.072,0.017 0.108,0.029l0.253,0.066c0.239,0.063 0.482,0.075 0.724,0.095c0.085,0.005 0.166,0.041 0.251,0.041c0.012,-0 0.023,-0.004 0.034,-0.004c0.011,0 0.023,0.004 0.034,0.004c0.086,-0 0.166,-0.036 0.251,-0.041c0.243,-0.02 0.486,-0.032 0.724,-0.095l0.254,-0.066c0.035,-0.012 0.072,-0.017 0.108,-0.029l20.432,-5.41c0.991,-0.263 1.846,-0.889 2.396,-1.752l14.662,-23.034c0.415,-0.656 0.637,-1.415 0.637,-2.191l0,-10.652c0.221,-0.021 0.444,-0.03 0.657,-0.088c0.05,-0.012 0.096,-0.042 0.146,-0.057c0.114,-0.036 0.217,-0.09 0.327,-0.135c0.174,-0.07 0.354,-0.126 0.518,-0.22c0.008,-0.006 0.018,-0.007 0.027,-0.012c0.059,-0.034 0.098,-0.087 0.154,-0.125c0.027,-0.017 0.051,-0.04 0.078,-0.058c0.059,-0.041 0.13,-0.056 0.187,-0.101l15.901,-12.231c0.491,-0.377 0.891,-0.862 1.166,-1.417l25.012,-50.367l0.292,4.772c0.073,1.192 0.666,2.294 1.623,3.013l29.356,22.015c0.714,0.537 1.575,0.816 2.446,0.816c0.407,-0 0.818,-0.062 1.216,-0.187c1.251,-0.389 2.237,-1.358 2.651,-2.6l15.553,-46.657l50.548,-44.532c0.827,-0.73 1.323,-1.762 1.376,-2.864" style="fill:#c99700;fill-rule:nonzero;"/><path d="M122.109,88.78l18.347,-15.595l16.818,13.761l-15.595,11.619l-19.57,-9.785Z" style="fill:#1a0b07;fill-rule:nonzero;"/><path d="M55.448,142.291l43.688,-43.727l2.791,49.407l-1.223,20.007l-29.355,22.016l-15.901,-47.703Z" style="fill:#bda342;fill-rule:nonzero;"/><path d="M4.076,97.036l79.504,-85.008l41.586,8.97l-27.52,52.187l1.489,25.38l-43.687,43.727l-51.372,-45.256Z" style="fill:#f7db6d;fill-rule:nonzero;"/><path d="M188.736,4.078l-0,18.958l-63.569,-2.038l41.587,-16.92l21.982,-0Z" style="fill:#f8e195;fill-rule:nonzero;"/><path d="M97.646,73.185l91.09,-50.148l-63.569,-2.039l-27.521,52.187Z" style="fill:#ddc55e;fill-rule:nonzero;"/><path d="M97.646,73.185l24.463,15.595l18.347,-15.595l48.28,-50.148l-91.09,50.148Z" style="fill:#f8e195;fill-rule:nonzero;"/><path d="M122.109,88.78l-20.182,59.191l-4.281,-74.786l24.463,15.595Z" style="fill:#ddc55e;fill-rule:nonzero;"/><path d="M157.274,86.945l16.512,22.551l-71.859,38.475l39.752,-49.406l15.595,-11.62Z" style="fill:#f0d86e;fill-rule:nonzero;"/><path d="M122.109,88.78l19.57,9.785l-39.752,49.406l20.182,-59.191Z" style="fill:#f0d770;fill-rule:nonzero;"/><path d="M188.736,23.036l-0,87.301l-14.95,-0.841l-16.512,-22.551l-16.818,-13.761l48.28,-50.148Z" style="fill:#bda342;fill-rule:nonzero;"/><path d="M101.927,147.971l57.895,11.444l0,-11.416l-57.895,-0.028Z" style="fill:#d8bf56;fill-rule:nonzero;"/><path d="M188.736,110.337l-0,22.839l-27.283,14.823l-59.526,-0.028l71.859,-38.475l14.95,0.841Z" style="fill:#f8e195;fill-rule:nonzero;"/><path d="M159.822,159.416l-10.193,64.826l-15.901,-12.231l-31.801,-64.039l57.895,11.444Z" style="fill:#f0d770;fill-rule:nonzero;"/><path d="M149.629,224.242l35.471,-27.724l3.635,-4.892l-15.867,-8.97l-13.046,-23.24l-10.193,64.826Z" style="fill:#29180e;fill-rule:nonzero;"/><path d="M188.736,191.625l-0,17.938l-39.106,14.678l39.106,-32.616Z" style="fill:#080200;fill-rule:nonzero;"/><path d="M153.315,222.86l0,16.06l14.661,23.036l20.793,5.504l-0.034,-57.896l-35.42,13.296Z" style="fill:#bc7797;fill-rule:nonzero;"/><path d="M255.363,88.78l-18.347,-15.595l-16.818,13.761l15.595,11.619l19.57,-9.785Z" style="fill:#1a0b07;fill-rule:nonzero;"/><path d="M322.024,142.291l-43.688,-43.727l-2.791,49.407l1.223,20.007l29.355,22.016l15.901,-47.703Z" style="fill:#bda342;fill-rule:nonzero;"/><path d="M373.395,97.036l-79.504,-85.008l-41.587,8.97l27.521,52.187l-1.49,25.38l43.688,43.727l51.372,-45.256Z" style="fill:#f7db6d;fill-rule:nonzero;"/><path d="M188.736,4.078l-0,18.958l63.569,-2.038l-41.587,-16.92l-21.982,-0Z" style="fill:#f8e195;fill-rule:nonzero;"/><path d="M279.825,73.185l-91.09,-50.148l63.569,-2.039l27.521,52.187Z" style="fill:#ddc55e;fill-rule:nonzero;"/><path d="M279.825,73.185l-24.463,15.595l-18.347,-15.595l-48.28,-50.148l91.09,50.148Z" style="fill:#f8e195;fill-rule:nonzero;"/><path d="M255.363,88.78l20.182,59.191l4.281,-74.786l-24.463,15.595Z" style="fill:#ddc55e;fill-rule:nonzero;"/><path d="M220.198,86.945l-16.513,22.551l71.86,38.475l-39.752,-49.406l-15.595,-11.62Z" style="fill:#f0d86e;fill-rule:nonzero;"/><path d="M255.363,88.78l-19.57,9.785l39.752,49.406l-20.182,-59.191Z" style="fill:#f0d770;fill-rule:nonzero;"/><path d="M188.736,23.036l-0,87.301l14.949,-0.841l16.513,-22.551l16.818,-13.761l-48.28,-50.148Z" style="fill:#bda342;fill-rule:nonzero;"/><path d="M275.544,147.971l-57.895,11.444l0,-11.416l57.895,-0.028Z" style="fill:#d8bf56;fill-rule:nonzero;"/><path d="M188.736,110.337l-0,22.839l27.283,14.823l59.526,-0.028l-71.86,-38.475l-14.949,0.841Z" style="fill:#f8e195;fill-rule:nonzero;"/><path d="M217.649,159.416l10.193,64.826l15.9,-12.231l31.802,-64.039l-57.895,11.444Z" style="fill:#f0d770;fill-rule:nonzero;"/><path d="M227.842,224.242l-35.471,-27.724l-3.635,-4.892l15.866,-8.97l13.047,-23.24l10.193,64.826Z" style="fill:#29180e;fill-rule:nonzero;"/><path d="M216.018,147.999l-27.283,-14.823l-27.282,14.823l-1.631,0l0,11.416l13.046,23.24l15.867,8.969l15.867,-8.969l13.047,-23.24l0,-11.416l-1.631,0Z" style="fill:#080200;fill-rule:nonzero;"/><path d="M188.736,191.625l-0,17.938l39.106,14.678l-39.106,-32.616Z" style="fill:#080200;fill-rule:nonzero;"/><path d="M224.156,222.86l0,16.06l-14.661,23.036l-20.794,5.504l0.035,-57.896l35.42,13.296Z" style="fill:#bc7797;fill-rule:nonzero;"/><path d="M152.129,208.341l-8.616,-6.931l-14.881,-34.452l11.748,37.102l0,13.067l9.249,7.114l2.5,-15.9Z" style="fill:#070506;fill-rule:nonzero;"/><path d="M225.335,208.341l8.616,-6.931l14.882,-34.452l-11.749,37.102l-0,13.067l-9.249,7.114l-2.5,-15.9Z" style="fill:#070506;fill-rule:nonzero;"/></svg>