<svg width="100%" height="100%" viewBox="0 0 102 103"
     xmlns="http://www.w3.org/2000/svg"
     xml:space="preserve"
     style="fill-rule:evenodd;clip-rule:evenodd;stroke-linejoin:round;stroke-miterlimit:2;">
  <path d="M85.996,24.094l-26.144,0l0,-15.254l26.144,-0l0,15.254Zm-32.68,17.429l-26.148,-0l-0,-26.144l26.148,-0l0,26.144Zm47.934,-10.894l0,30.504l-41.398,-0l0,-30.504l41.398,-0Zm-47.934,58.828l-41.398,-0l0,-41.398l41.398,-0l0,41.398Zm6.536,-21.789l26.144,-0l0,26.148l-26.144,-0l0,-26.148Zm-44.817,-52.633c4.735,-4.738 10.172,-8.402 16.313,-11c6.359,-2.691 13.019,-4.035 19.98,-4.035c6.961,-0 13.62,1.344 19.981,4.035c1.519,0.641 2.996,1.352 4.433,2.125l-10.051,0c-4.621,-1.472 -9.41,-2.211 -14.363,-2.211c-6.426,-0 -12.574,1.239 -18.441,3.723c-5.668,2.394 -10.688,5.781 -15.063,10.152c-4.371,4.375 -7.758,9.395 -10.152,15.063c-2.484,5.867 -3.723,12.015 -3.723,18.441c-0,6.426 1.239,12.574 3.723,18.442c0.48,1.14 1.004,2.253 1.566,3.339l-0,7.618c-2.054,-2.93 -3.789,-6.071 -5.204,-9.418c-2.69,-6.36 -4.034,-13.02 -4.034,-19.981c0,-6.961 1.344,-13.621 4.034,-19.98c2.599,-6.141 6.263,-11.578 11.001,-16.313Zm83.586,56.274c-2.398,5.675 -5.715,10.753 -9.941,15.23l0,-6.043c2.562,-3.273 4.664,-6.848 6.304,-10.726c0.828,-1.954 1.516,-3.942 2.071,-5.958l4.078,0c-0.637,2.543 -1.473,5.043 -2.512,7.497Zm-27.312,27.312c-6.361,2.691 -13.02,4.035 -19.981,4.035c-6.961,-0 -13.621,-1.344 -19.98,-4.035c-4.024,-1.699 -7.746,-3.863 -11.168,-6.484l7.05,0c1.805,1.07 3.692,2.019 5.657,2.847c5.867,2.485 12.015,3.723 18.441,3.723c4.953,-0 9.742,-0.734 14.363,-2.211l10.051,-0c-1.437,0.774 -2.914,1.484 -4.433,2.125Zm17.371,-76.457l0,-6.047c3.363,3.567 6.152,7.508 8.359,11.832l-4.484,-0c-1.149,-2.023 -2.438,-3.953 -3.875,-5.785Z" style="fill:#c99700;"/>
</svg>
